<svg xmlns="http://www.w3.org/2000/svg" viewBox="0 0 745.72 250"><defs><style>.cls-1{fill:#fff;}</style></defs><title>Asset 2</title><g id="Layer_2" data-name="Layer 2"><g id="Layer_1-2" data-name="Layer 1"><path class="cls-1" d="M351,89.68H375v104.4H351Zm87.4,42.71c-12.26-4-23.54-7.12-23.54-14.63v-.4c0-6.13,5.34-10.48,14.63-10.48a45.85,45.85,0,0,1,14.85,2.88h0l.15.07,1.37.51c3.78,1.2,14,2.8,22.6-10.56-11.08-7.32-25.31-11.87-38.37-11.87C409.37,87.89,393,100,393,119.73v.4c0,20,17.2,26.3,32.63,30.65,12.26,3.76,23.34,6.52,23.34,14.63v.39c0,6.92-5.93,11.27-16.22,11.27a51.79,51.79,0,0,1-21.78-5.32c-2.15-.91-13.32-4.73-22.87,8.86a73.35,73.35,0,0,0,44.06,15.45c21.75,0,38.76-10.87,38.76-32.83v-.39C470.87,144.05,453.67,137.13,438.44,132.39Zm199.12,9.49c0,29.86-23.73,54.58-56,54.58-31.84,0-55.37-24.32-55.37-54.18C526.23,112.21,550,87.5,582,87.5S637.57,111.82,637.57,141.87Zm-23.93.4c0-18.59-13.25-33.82-32-33.82-19.18,0-31.44,15-31.44,33.42,0,18.59,13.25,33.82,31.84,33.82C601.37,175.69,613.64,160.66,613.64,142.27ZM486.69,194.08h23.93V89.68H486.69ZM708.55,87.5c-16.22,0-25.9,8.5-32.63,18.39V89.68H652v104.4h23.92V135.15c0-16.21,9.69-25.9,23.53-25.9,14.24,0,22.34,9.29,22.34,25.5v59.33h23.93V127.64C745.72,103.32,732.08,87.5,708.55,87.5ZM339.18,89.68,296.47,194.87H274.92L250,133.78v93.56A22.66,22.66,0,0,1,227.34,250H22.66A22.66,22.66,0,0,1,0,227.34V22.66A22.66,22.66,0,0,1,22.66,0H227.34A22.66,22.66,0,0,1,250,22.66v67h7.72l28.08,76.72,28.28-76.72ZM68.28,63.61a15.27,15.27,0,1,0,15.27-15A15.1,15.1,0,0,0,68.28,63.61Zm147.09,99.94-9.88-3.81c-4.94,13.69-9.21,16.17-12.58,16.17s-5.17-2.24-5.17-6.73a29.8,29.8,0,0,1,1.12-7l7.19-25.82A56.93,56.93,0,0,0,198.53,120c0-19.31-11.68-29.39-25.83-29.39-13.25,0-26.73,12-33.46,24.53l4.94-22.58h-38.4l-5.39,19.89h18l-11.06,44.3c-8.69,19.31-24.65,19.63-26.65,19.18-3.29-.74-5.39-2-5.39-6.26a42.33,42.33,0,0,1,1.57-10.28L93.66,92.57H51L45.6,112.45H63.34L51.88,159.24a51.69,51.69,0,0,0-1.35,11.31c0,13.25,7.19,22.05,22.46,22.05,12.67,0,22.93-7.52,30.33-19.67l-4.51,18.12H124l14.37-57.65c3.59-14.6,10.55-22.18,21.11-22.18,8.31,0,13.48,5.17,13.48,13.7A26.94,26.94,0,0,1,171.8,133l-7.41,26.5a39.84,39.84,0,0,0-1.57,11.23c0,12.58,7.41,21.78,22.91,21.78C199,192.52,209.53,184,215.37,163.55Z"/></g></g></svg>